Coordinates
version=1
nRows=38
nColumns=38
inDegrees=no

Units are S.I. units (second, meters, Newtons, ...)
If the header above contains a line with 'inDegrees', this indicates whether rotational values are in degrees (yes) or radians (no).

endheader
time	pelvis_tilt	pelvis_list	pelvis_rotation	pelvis_tx	pelvis_ty	pelvis_tz	hip_flexion_r	hip_adduction_r	hip_rotation_r	knee_angle_r	ankle_angle_r	subtalar_angle_r	mtp_angle_r	hip_flexion_l	hip_adduction_l	hip_rotation_l	knee_angle_l	ankle_angle_l	subtalar_angle_l	mtp_angle_l	lumbar_extension	lumbar_bending	lumbar_rotation	arm_flex_r	arm_add_r	arm_rot_r	elbow_flex_r	pro_sup_r	wrist_flex_r	wrist_dev_r	arm_flex_l	arm_add_l	arm_rot_l	elbow_flex_l	pro_sup_l	wrist_flex_l	wrist_dev_l
10	0.28643	1.4215	1.15624	0.673945	0.827561	1.05132	0.211868	-0.0295235	-0.308057	0.238955	-0.415834	0	0	0.0786049	-0.118034	-0.332972	0.0544701	-0.510508	0	0	0.0833367	0.0933621	-0.329015	0.286475	-0.195489	0.511128	0.119591	1.5708	0	0	-0.347325	-0.223851	-0.104758	0.843142	1.36161	0	0
10.01	0.283699	1.42101	1.15897	0.673991	0.827674	1.05126	0.212624	-0.0292364	-0.309366	0.239353	-0.415576	0	0	0.0794535	-0.118008	-0.33358	0.055083	-0.51016	0	0	0.0834352	0.0939704	-0.329601	0.288636	-0.194697	0.512435	0.119106	1.5708	0	0	-0.349455	-0.222483	-0.104083	0.838326	1.36004	0	0
10.02	0.281542	1.42063	1.16103	0.674037	0.827747	1.05121	0.212895	-0.029137	-0.307956	0.238729	-0.415454	0	0	0.0802869	-0.118045	-0.334043	0.0559723	-0.509787	0	0	0.0831968	0.0948323	-0.330119	0.29155	-0.193623	0.513115	0.117573	1.5708	0	0	-0.35156	-0.220981	-0.103846	0.833841	1.35837	0	0
10.03	0.279403	1.42019	1.16323	0.674062	0.827773	1.05116	0.213138	-0.0294337	-0.305202	0.238068	-0.415443	0	0	0.0811384	-0.118047	-0.333814	0.0565643	-0.509566	0	0	0.0827387	0.0958172	-0.33081	0.29496	-0.192319	0.513627	0.115279	1.5708	0	0	-0.353798	-0.219401	-0.104246	0.829998	1.35675	0	0
10.04	0.277962	1.41996	1.16469	0.674117	0.827782	1.05114	0.213476	-0.0293298	-0.304519	0.238187	-0.415367	0	0	0.0815681	-0.118071	-0.333369	0.0567321	-0.509437	0	0	0.0819666	0.0967633	-0.331319	0.298452	-0.190949	0.514498	0.11261	1.5708	0	0	-0.356268	-0.217703	-0.105624	0.827004	1.35504	0	0
10.05	0.277529	1.4198	1.16489	0.674239	0.827772	1.05114	0.213767	-0.0289371	-0.304063	0.238235	-0.415328	0	0	0.0819647	-0.118357	-0.333136	0.0572495	-0.509184	0	0	0.080926	0.0978548	-0.331446	0.302063	-0.189606	0.515764	0.109753	1.5708	0	0	-0.358948	-0.215894	-0.10792	0.824808	1.35313	0	0
10.06	0.278209	1.41969	1.16398	0.674409	0.827763	1.05114	0.213778	-0.0283462	-0.303948	0.237933	-0.415316	0	0	0.0822732	-0.118858	-0.332813	0.0578832	-0.508944	0	0	0.0796618	0.0990186	-0.331525	0.305554	-0.188275	0.516987	0.107062	1.5708	0	0	-0.361841	-0.213949	-0.111269	0.823246	1.35076	0	0
10.07	0.279121	1.41977	1.16283	0.674588	0.827751	1.05114	0.213507	-0.0278829	-0.304041	0.23759	-0.415301	0	0	0.082267	-0.119352	-0.332472	0.0582643	-0.508785	0	0	0.0782044	0.100007	-0.331416	0.308862	-0.187095	0.518145	0.104691	1.5708	0	0	-0.364863	-0.211968	-0.115477	0.822188	1.34802	0	0
10.08	0.28015	1.42002	1.16152	0.674821	0.827759	1.05116	0.213007	-0.0274915	-0.304498	0.237318	-0.415281	0	0	0.082058	-0.119861	-0.332112	0.0587563	-0.508687	0	0	0.0768179	0.100739	-0.330913	0.311706	-0.186268	0.519229	0.102881	1.5708	0	0	-0.36811	-0.210145	-0.119954	0.821688	1.34544	0	0
10.09	0.280017	1.42023	1.16165	0.675098	0.82777	1.05119	0.212593	-0.0273286	-0.305616	0.23708	-0.415265	0	0	0.0819693	-0.120271	-0.331538	0.0591933	-0.50869	0	0	0.0757598	0.101043	-0.330483	0.313925	-0.185475	0.519544	0.101577	1.5708	0	0	-0.371485	-0.208651	-0.124422	0.821429	1.34342	0	0
10.1	0.278416	1.42027	1.16362	0.675427	0.827772	1.05119	0.212467	-0.0274024	-0.307757	0.23699	-0.415202	0	0	0.0821556	-0.120577	-0.330607	0.0594941	-0.508629	0	0	0.0749794	0.100989	-0.330562	0.315976	-0.184564	0.519369	0.100546	1.5708	0	0	-0.375033	-0.206929	-0.130222	0.821242	1.34215	0	0
10.11	0.274855	1.42108	1.16774	0.675819	0.827729	1.05125	0.211639	-0.0279548	-0.308789	0.236662	-0.415178	0	0	0.08183	-0.120361	-0.329768	0.0598565	-0.509093	0	0	0.0744758	0.100281	-0.329227	0.316192	-0.184775	0.520343	0.101182	1.5708	0	0	-0.377139	-0.211497	-0.12063	0.819769	1.32809	0	0
10.12	0.277514	1.41822	1.16484	0.675888	0.828047	1.05099	0.213829	-0.026393	-0.309061	0.236417	-0.41535	0	0	0.084173	-0.12233	-0.330642	0.0601083	-0.508615	0	0	0.0769162	0.10243	-0.329426	0.317321	-0.18553	0.518917	0.10081	1.5708	0	0	-0.381725	-0.208153	-0.125845	0.819469	1.3268	0	0
10.13	0.277	1.41591	1.16547	0.676061	0.828327	1.05077	0.215656	-0.0255484	-0.30958	0.236196	-0.415447	0	0	0.0862251	-0.123627	-0.331159	0.0602223	-0.508346	0	0	0.0790764	0.103505	-0.32945	0.317645	-0.186176	0.517281	0.101307	1.5708	0	0	-0.386035	-0.206036	-0.129658	0.819014	1.32719	0	0
10.14	0.274142	1.41379	1.16883	0.676286	0.828606	1.05055	0.217399	-0.0251628	-0.310122	0.235961	-0.415465	0	0	0.0882384	-0.124452	-0.331152	0.0601324	-0.508149	0	0	0.08132	0.103892	-0.3298	0.317649	-0.186646	0.514867	0.102238	1.5708	0	0	-0.390142	-0.20405	-0.134075	0.818145	1.32835	0	0
10.15	0.271598	1.41222	1.17221	0.676556	0.828916	1.05037	0.218882	-0.0246446	-0.313442	0.236479	-0.41521	0	0	0.0896358	-0.125056	-0.330601	0.0599351	-0.507966	0	0	0.0831247	0.103864	-0.330345	0.31733	-0.187003	0.512133	0.103505	1.5708	0	0	-0.394037	-0.202336	-0.138803	0.817432	1.32963	0	0
10.16	0.269336	1.41097	1.17519	0.676835	0.82917	1.05023	0.219477	-0.0247898	-0.311951	0.235663	-0.415228	0	0	0.0905893	-0.125429	-0.32934	0.0593626	-0.507932	0	0	0.0843537	0.103763	-0.33061	0.316856	-0.187487	0.510246	0.10547	1.5708	0	0	-0.397347	-0.200956	-0.143088	0.816651	1.33108	0	0
10.17	0.267746	1.41015	1.17746	0.677133	0.829368	1.05013	0.220096	-0.0243887	-0.312067	0.235406	-0.415161	0	0	0.0911081	-0.125772	-0.329323	0.0587387	-0.508133	0	0	0.0849753	0.103721	-0.330663	0.316508	-0.188059	0.508783	0.1078	1.5708	0	0	-0.399976	-0.199926	-0.146743	0.815549	1.33256	0	0
10.18	0.265691	1.40953	1.18029	0.67746	0.82959	1.05005	0.220635	-0.0243482	-0.313613	0.235664	-0.415066	0	0	0.091253	-0.125861	-0.328088	0.0577395	-0.508476	0	0	0.085443	0.103415	-0.330817	0.315912	-0.188367	0.506779	0.11014	1.5708	0	0	-0.402492	-0.199116	-0.150184	0.814449	1.33368	0	0
10.19	0.264431	1.40914	1.18265	0.677805	0.829883	1.05	0.221237	-0.0241439	-0.318856	0.237055	-0.414627	0	0	0.091227	-0.125986	-0.326673	0.0570544	-0.508716	0	0	0.0858251	0.102973	-0.331238	0.314956	-0.188571	0.505475	0.112457	1.5708	0	0	-0.405135	-0.198485	-0.153459	0.813599	1.33468	0	0
10.2	0.264135	1.40868	1.18465	0.678118	0.830177	1.04997	0.220595	-0.0243612	-0.317268	0.236021	-0.414274	0	0	0.0910693	-0.126099	-0.323815	0.055622	-0.509208	0	0	0.0862937	0.102738	-0.332105	0.313885	-0.18896	0.505103	0.114903	1.5708	0	0	-0.407295	-0.198057	-0.15606	0.812372	1.33566	0	0
10.21	0.262252	1.40771	1.18852	0.678369	0.830365	1.04991	0.220632	-0.0240951	-0.316757	0.234303	-0.414026	0	0	0.0922233	-0.12639	-0.323537	0.0552511	-0.510025	0	0	0.0872646	0.102554	-0.333043	0.31286	-0.189502	0.505619	0.117346	1.5708	0	0	-0.408744	-0.197899	-0.157848	0.810739	1.33654	0	0
10.22	0.25991	1.40687	1.19246	0.678656	0.830541	1.04985	0.220903	-0.0239802	-0.316937	0.233308	-0.413965	0	0	0.0933728	-0.126614	-0.323618	0.0552716	-0.51071	0	0	0.0880906	0.10223	-0.33351	0.311754	-0.189822	0.505851	0.119543	1.5708	0	0	-0.410106	-0.197705	-0.159836	0.809171	1.33693	0	0
10.23	0.257733	1.40612	1.19618	0.678952	0.830718	1.04979	0.221393	-0.023945	-0.317682	0.233126	-0.413893	0	0	0.0945359	-0.126802	-0.323574	0.0555169	-0.511271	0	0	0.0887431	0.102008	-0.333917	0.31066	-0.19026	0.506313	0.12192	1.5708	0	0	-0.411172	-0.197215	-0.162402	0.807466	1.33723	0	0
10.24	0.256419	1.40565	1.19922	0.679246	0.830906	1.04976	0.222038	-0.023566	-0.321234	0.234101	-0.413384	0	0	0.0954819	-0.127064	-0.323708	0.0559911	-0.511622	0	0	0.0890281	0.101852	-0.33447	0.309853	-0.190515	0.507244	0.123691	1.5708	0	0	-0.411977	-0.19695	-0.164556	0.806072	1.33739	0	0
10.25	0.25505	1.40508	1.20246	0.6795	0.831072	1.04973	0.222381	-0.0235715	-0.322491	0.234394	-0.41289	0	0	0.0964804	-0.127253	-0.323155	0.0561614	-0.512132	0	0	0.0894668	0.101783	-0.334939	0.309021	-0.190914	0.508416	0.12528	1.5708	0	0	-0.412331	-0.196847	-0.166102	0.804485	1.33759	0	0
10.26	0.254038	1.40464	1.2052	0.679757	0.831249	1.0497	0.222275	-0.0235902	-0.32283	0.234085	-0.412718	0	0	0.0972566	-0.127349	-0.322079	0.0561332	-0.513241	0	0	0.0895218	0.101715	-0.335657	0.308309	-0.191429	0.511305	0.127371	1.5708	0	0	-0.412488	-0.193435	-0.17613	0.80283	1.34578	0	0
10.27	0.252863	1.40447	1.2079	0.680021	0.831397	1.0497	0.221938	-0.024163	-0.321396	0.233978	-0.412795	0	0	0.0976667	-0.127247	-0.320774	0.0559082	-0.513638	0	0	0.0895367	0.101616	-0.33587	0.308269	-0.190916	0.510925	0.126802	1.5708	0	0	-0.412572	-0.193288	-0.177723	0.801659	1.34576	0	0
10.28	0.252094	1.40434	1.21035	0.68029	0.831566	1.0497	0.221882	-0.0242875	-0.32198	0.234362	-0.412545	0	0	0.0982622	-0.127356	-0.320274	0.0563831	-0.513965	0	0	0.0896495	0.101513	-0.336209	0.308019	-0.190201	0.510254	0.125904	1.5708	0	0	-0.412645	-0.193199	-0.179183	0.800712	1.34588	0	0
10.29	0.250936	1.40417	1.21333	0.680527	0.831747	1.04971	0.221937	-0.0245723	-0.322644	0.234717	-0.412239	0	0	0.0989001	-0.127376	-0.319889	0.0567926	-0.514317	0	0	0.0899843	0.101437	-0.336501	0.307823	-0.189569	0.509801	0.124675	1.5708	0	0	-0.412451	-0.193175	-0.180161	0.799904	1.34641	0	0
10.3	0.250053	1.404	1.21627	0.680712	0.831908	1.04972	0.221712	-0.024742	-0.323304	0.234374	-0.41197	0	0	0.0995632	-0.127398	-0.319217	0.0571093	-0.514654	0	0	0.0902835	0.101486	-0.336921	0.307833	-0.189073	0.50944	0.123324	1.5708	0	0	-0.411893	-0.19312	-0.180942	0.799134	1.34704	0	0
10.31	0.249082	1.40397	1.21911	0.680919	0.832081	1.04975	0.221382	-0.0248915	-0.323559	0.234177	-0.412158	0	0	0.100081	-0.127408	-0.318748	0.057555	-0.514684	0	0	0.0904892	0.10138	-0.336563	0.306132	-0.190066	0.510957	0.125569	1.5708	0	0	-0.411247	-0.195973	-0.174478	0.799224	1.33969	0	0
10.32	0.249055	1.40403	1.22089	0.681132	0.832253	1.04978	0.221111	-0.0249595	-0.324298	0.234491	-0.411884	0	0	0.100527	-0.127642	-0.318209	0.0582826	-0.514957	0	0	0.0907081	0.101469	-0.336388	0.306058	-0.189503	0.51065	0.123717	1.5708	0	0	-0.410243	-0.195816	-0.175443	0.79873	1.34083	0	0
10.33	0.248564	1.40377	1.22294	0.681358	0.832414	1.0498	0.221256	-0.0249359	-0.324698	0.234815	-0.411634	0	0	0.101314	-0.128035	-0.318071	0.0591185	-0.515277	0	0	0.0914053	0.101658	-0.335866	0.305831	-0.18913	0.510413	0.121872	1.5708	0	0	-0.40908	-0.195659	-0.176066	0.798337	1.34184	0	0
10.34	0.248669	1.40333	1.22471	0.681517	0.832536	1.0498	0.221594	-0.0248632	-0.324968	0.235225	-0.411321	0	0	0.102584	-0.128518	-0.318733	0.0603238	-0.515599	0	0	0.0923347	0.102106	-0.33547	0.305697	-0.189027	0.510264	0.120052	1.5708	0	0	-0.407576	-0.195165	-0.176895	0.798097	1.3424	0	0
10.35	0.248952	1.4033	1.22615	0.681691	0.83269	1.04981	0.221669	-0.0249697	-0.325289	0.236205	-0.410739	0	0	0.103376	-0.128904	-0.319071	0.0616284	-0.515682	0	0	0.0929362	0.102341	-0.335042	0.305485	-0.188646	0.510143	0.11808	1.5708	0	0	-0.406374	-0.194629	-0.178021	0.798494	1.34283	0	0
10.36	0.250267	1.40378	1.22654	0.68186	0.832874	1.04984	0.221229	-0.0251838	-0.325405	0.237621	-0.409995	0	0	0.103504	-0.129113	-0.319055	0.0626789	-0.515644	0	0	0.0930062	0.102496	-0.334696	0.305242	-0.18817	0.510016	0.116273	1.5708	0	0	-0.405334	-0.194318	-0.178812	0.799673	1.34326	0	0
10.37	0.25172	1.40448	1.22658	0.682038	0.833067	1.04987	0.220244	-0.0252502	-0.325558	0.2381	-0.409307	0	0	0.103142	-0.129235	-0.31825	0.0633614	-0.515575	0	0	0.0929279	0.102579	-0.334011	0.304975	-0.187646	0.509797	0.114261	1.5708	0	0	-0.404261	-0.194052	-0.179502	0.801458	1.34381	0	0
